<svg id="Ebene_1" data-name="Ebene 1" xmlns="http://www.w3.org/2000/svg" viewBox="0 0 238.5 44.87">
  <defs>
    <style>
      .cls-1 {
        fill: #29bdef;
      }

      .cls-2 {
        fill: #3891bc;
      }

      .cls-3 {
        fill: #00497d;
      }
    </style>
  </defs>
  <g>
    <g>
      <polygon class="cls-1" points="23.39 1.82 19.5 8.7 35.05 36.11 38.92 29.41 23.39 1.82"/>
      <polygon class="cls-2" points="15.44 43.01 46.42 43.05 42.71 36.26 11.59 36.1 15.44 43.01"/>
      <polygon class="cls-3" points="15.57 15.48 0 43.04 7.77 43.05 23.18 15.45 15.57 15.48"/>
    </g>
    <g>
      <g>
        <g>
          <path class="cls-3" d="M211.32,72.7c-.25,0-.53,0-.82,0l-.88-.05q-.44,0-.87-.09a7.54,7.54,0,0,1-.79-.14V60.32c.24,0,.5-.1.79-.14l.87-.09.87-.05.81,0a11.73,11.73,0,0,1,2,.16,5,5,0,0,1,1.63.55,3,3,0,0,1,1.09,1,2.82,2.82,0,0,1,.4,1.55A2.72,2.72,0,0,1,216,65a2.89,2.89,0,0,1-1.29,1,3.67,3.67,0,0,1,1.74,1,2.83,2.83,0,0,1,.65,2,3.19,3.19,0,0,1-1.38,2.81A7.8,7.8,0,0,1,211.32,72.7Zm-1.64-7.31h1.84a8,8,0,0,0,1.22-.09,3.11,3.11,0,0,0,1-.32,1.88,1.88,0,0,0,.67-.61,1.75,1.75,0,0,0,.24-1,1.54,1.54,0,0,0-.25-.9,1.84,1.84,0,0,0-.69-.6,4.1,4.1,0,0,0-1-.33,7.09,7.09,0,0,0-1.25-.11l-1,0a6.58,6.58,0,0,0-.69.06Zm0,1.4v4.39l.47,0,.55,0h.73a11.29,11.29,0,0,0,1.46-.1,4.19,4.19,0,0,0,1.21-.35,2.14,2.14,0,0,0,.84-.7,1.93,1.93,0,0,0,.31-1.13,2.19,2.19,0,0,0-.23-1,1.75,1.75,0,0,0-.68-.67,3.09,3.09,0,0,0-1.05-.36,8,8,0,0,0-1.36-.11Z" transform="translate(-33.79 -29.07)"/>
          <path class="cls-3" d="M227.83,72.59c-.21-.53-.4-1.06-.58-1.59s-.36-1-.55-1.58h-5.65l-1.13,3.17h-1.81c.48-1.31.93-2.53,1.35-3.65s.82-2.18,1.23-3.19.8-2,1.19-2.88.81-1.83,1.24-2.72h1.6c.43.89.84,1.8,1.24,2.72s.79,1.87,1.19,2.88.81,2.07,1.23,3.19.87,2.34,1.35,3.65ZM226.19,68q-.57-1.56-1.14-3c-.38-1-.77-1.91-1.18-2.81-.41.9-.81,1.83-1.19,2.81s-.75,2-1.12,3Z" transform="translate(-33.79 -29.07)"/>
          <path class="cls-3" d="M233,72.59v-5q-1.23-1.92-2.33-3.79t-2.07-3.66h2.05c.46,1,1,2,1.53,3s1.14,2,1.74,2.92c.59-.94,1.16-1.91,1.73-2.92s1.07-2,1.54-3h1.94c-.65,1.19-1.33,2.41-2.07,3.65s-1.5,2.5-2.31,3.76v5Z" transform="translate(-33.79 -29.07)"/>
          <path class="cls-3" d="M240.74,72.59V60.15h7.6v1.49h-5.85v3.7h5.21v1.45h-5.21V71.1h6.3v1.49Z" transform="translate(-33.79 -29.07)"/>
          <path class="cls-3" d="M257.09,67.39c.19.23.44.55.73.94s.59.82.91,1.29.62,1,.92,1.48a14.4,14.4,0,0,1,.78,1.49h-1.9q-.36-.68-.78-1.38c-.28-.47-.57-.91-.86-1.34s-.57-.82-.85-1.19-.54-.7-.76-1l-.48,0h-2.06v4.86H251V60.32a10.7,10.7,0,0,1,1.65-.24c.6,0,1.15-.06,1.66-.06a6.75,6.75,0,0,1,4,1,3.79,3.79,0,0,1,.72,5.06A3.84,3.84,0,0,1,257.09,67.39Zm-2.64-5.84c-.74,0-1.31,0-1.71.05v4.69H254a13.16,13.16,0,0,0,1.62-.09,3.61,3.61,0,0,0,1.21-.34,1.89,1.89,0,0,0,.77-.71,2.38,2.38,0,0,0,.27-1.21,2.3,2.3,0,0,0-.27-1.17,2.07,2.07,0,0,0-.73-.74,3.44,3.44,0,0,0-1.08-.38A7.86,7.86,0,0,0,254.45,61.55Z" transform="translate(-33.79 -29.07)"/>
          <path class="cls-3" d="M270.84,72.59l-.91-1.49q-.51-.82-1.11-1.71c-.39-.59-.8-1.2-1.23-1.81s-.85-1.2-1.26-1.77-.83-1.1-1.23-1.6-.76-.95-1.09-1.33v9.71H262.3V60.15h1.38c.57.59,1.17,1.29,1.81,2.09s1.28,1.61,1.9,2.46,1.23,1.67,1.78,2.49,1,1.54,1.41,2.17V60.15h1.71V72.59Z" transform="translate(-33.79 -29.07)"/>
        </g>
        <g>
          <polygon class="cls-1" points="149.28 37.4 144.45 44.87 139.62 37.4 144.45 29.93 149.28 37.4"/>
          <polygon class="cls-2" points="158.94 37.4 154.11 44.87 149.28 37.4 154.11 29.93 158.94 37.4"/>
          <polygon class="cls-3" points="168.6 37.4 163.77 44.87 158.94 37.4 163.77 29.93 168.6 37.4"/>
        </g>
      </g>
      <g>
        <g>
          <path class="cls-3" d="M99.23,51.55c-.28-.79-.56-1.57-.85-2.35s-.57-1.56-.84-2.37H89.06c-.27.81-.55,1.61-.83,2.39s-.55,1.56-.82,2.33h-3.8c.75-2.14,1.47-4.12,2.14-5.94s1.34-3.53,2-5.16,1.29-3.16,1.93-4.63,1.29-2.92,2-4.35h3.48c.68,1.43,1.33,2.88,2,4.35s1.28,3,1.93,4.63,1.31,3.35,2,5.16,1.4,3.8,2.16,5.94ZM93.3,35.36c-.44,1-1,2.27-1.52,3.73S90.62,42.15,90,43.87h6.6q-.91-2.58-1.79-4.81C94.23,37.58,93.73,36.34,93.3,35.36Z" transform="translate(-33.79 -29.07)"/>
          <path class="cls-3" d="M109,42.31l1.42-1.49c.5-.53,1-1.06,1.47-1.6s1-1,1.38-1.53.81-.92,1.12-1.29h4.14c-1,1.08-2,2.2-3,3.36s-2.14,2.29-3.22,3.39a22.16,22.16,0,0,1,1.82,1.75c.63.69,1.25,1.42,1.85,2.19s1.15,1.54,1.67,2.32a21.56,21.56,0,0,1,1.3,2.14h-4c-.35-.6-.75-1.23-1.2-1.88a22.54,22.54,0,0,0-1.47-1.91c-.52-.62-1-1.21-1.59-1.76A13.08,13.08,0,0,0,109,44.6v6.95h-3.51V29.65l3.51-.58Z" transform="translate(-33.79 -29.07)"/>
          <path class="cls-3" d="M121.3,32.4l3.51-.58V36.4h5.38v2.92h-5.38V45.5a4.44,4.44,0,0,0,.58,2.6,2.29,2.29,0,0,0,2,.78,6.22,6.22,0,0,0,1.69-.2,12,12,0,0,0,1.17-.37l.58,2.78a12.73,12.73,0,0,1-1.59.53,8.42,8.42,0,0,1-2.32.28,7.36,7.36,0,0,1-2.71-.44,4,4,0,0,1-1.72-1.26,4.83,4.83,0,0,1-.9-2,12.62,12.62,0,0,1-.26-2.68Z" transform="translate(-33.79 -29.07)"/>
          <path class="cls-3" d="M137.49,32a2,2,0,0,1-.63,1.56,2.28,2.28,0,0,1-3,0,2,2,0,0,1-.64-1.56,2,2,0,0,1,.64-1.6,2.28,2.28,0,0,1,3,0A2.07,2.07,0,0,1,137.49,32Zm-.37,19.58h-3.51V36.4h3.51Z" transform="translate(-33.79 -29.07)"/>
          <path class="cls-3" d="M145.48,51.55q-1.46-3-3-6.85c-1-2.58-1.94-5.35-2.78-8.3h3.74c.22.85.46,1.76.74,2.74s.59,2,.91,2.92.64,1.92,1,2.84.66,1.75.95,2.48c.29-.73.6-1.56.93-2.48s.66-1.86,1-2.84.62-2,.91-2.92.54-1.89.76-2.74h3.62a85.8,85.8,0,0,1-2.78,8.3q-1.53,3.87-3,6.85Z" transform="translate(-33.79 -29.07)"/>
        </g>
        <g>
          <path class="cls-1" d="M161.86,48.83a4.84,4.84,0,0,0,2.87-.67,2.2,2.2,0,0,0,.9-1.88,2.49,2.49,0,0,0-.31-1.25,3.07,3.07,0,0,0-.87-.94,7,7,0,0,0-1.37-.78,19.85,19.85,0,0,0-1.86-.71c-.69-.25-1.36-.53-2-.83a6.81,6.81,0,0,1-1.71-1.11,5.27,5.27,0,0,1-1.19-1.6,5,5,0,0,1-.45-2.23,5.22,5.22,0,0,1,1.89-4.27A7.82,7.82,0,0,1,162.87,31a12.18,12.18,0,0,1,3.35.42,10.25,10.25,0,0,1,2.3.91l-1.13,3a8.23,8.23,0,0,0-2.16-.84,10.13,10.13,0,0,0-2.41-.29,3.8,3.8,0,0,0-2.31.61,2,2,0,0,0-.82,1.71,2.29,2.29,0,0,0,.27,1.14,3,3,0,0,0,.78.85,6.44,6.44,0,0,0,1.19.7c.46.21.95.42,1.49.61,1,.35,1.8.7,2.54,1.06a7,7,0,0,1,1.88,1.27A5.11,5.11,0,0,1,169,43.86a6.42,6.42,0,0,1,.4,2.42,5,5,0,0,1-1.93,4.21A9,9,0,0,1,161.86,52a15.72,15.72,0,0,1-2.27-.15,14.06,14.06,0,0,1-1.83-.4,12.93,12.93,0,0,1-1.38-.47c-.38-.17-.69-.32-.92-.45l1.07-3a12.53,12.53,0,0,0,2.11.87A10.44,10.44,0,0,0,161.86,48.83Z" transform="translate(-33.79 -29.07)"/>
          <path class="cls-1" d="M171.62,44.05a9.45,9.45,0,0,1,.6-3.51A7.18,7.18,0,0,1,173.8,38a6.42,6.42,0,0,1,2.25-1.51,7,7,0,0,1,2.61-.51A6.25,6.25,0,0,1,183.54,38q1.76,1.95,1.76,5.8c0,.19,0,.41,0,.65s0,.46,0,.65h-10a4,4,0,0,0,1.29,2.83,5,5,0,0,0,3.32,1,10.52,10.52,0,0,0,2.33-.23,9.62,9.62,0,0,0,1.67-.49l.46,2.87a4.56,4.56,0,0,1-.8.3,8.74,8.74,0,0,1-1.15.29c-.44.09-.91.16-1.41.22a12.83,12.83,0,0,1-1.53.09,9.18,9.18,0,0,1-3.48-.6,6.24,6.24,0,0,1-2.43-1.65,6.54,6.54,0,0,1-1.42-2.49A10.14,10.14,0,0,1,171.62,44.05Zm10.17-1.57a4.73,4.73,0,0,0-.2-1.37A3.22,3.22,0,0,0,181,40a2.93,2.93,0,0,0-1-.76,3.13,3.13,0,0,0-1.35-.27,3.19,3.19,0,0,0-1.42.3,3.4,3.4,0,0,0-1,.8,3.71,3.71,0,0,0-.65,1.13,6.5,6.5,0,0,0-.32,1.3Z" transform="translate(-33.79 -29.07)"/>
          <path class="cls-1" d="M189,36.89a23.7,23.7,0,0,1,2.64-.55,23.18,23.18,0,0,1,3.59-.26,8.2,8.2,0,0,1,3.1.51,4.91,4.91,0,0,1,2,1.42,5.41,5.41,0,0,1,1,2.2,12.45,12.45,0,0,1,.3,2.82v8.52h-3.5v-8a11.16,11.16,0,0,0-.16-2.07,3.77,3.77,0,0,0-.52-1.39,2,2,0,0,0-1-.78,4.2,4.2,0,0,0-1.52-.25,11.29,11.29,0,0,0-1.39.09l-1.07.14V51.55H189Z" transform="translate(-33.79 -29.07)"/>
          <path class="cls-1" d="M209.86,32a2,2,0,0,1-.63,1.56,2.17,2.17,0,0,1-1.51.58,2.2,2.2,0,0,1-1.54-.58,2,2,0,0,1-.63-1.56,2.07,2.07,0,0,1,.63-1.6,2.25,2.25,0,0,1,1.54-.58,2.21,2.21,0,0,1,1.51.58A2.07,2.07,0,0,1,209.86,32Zm-.37,19.58H206V36.4h3.51Z" transform="translate(-33.79 -29.07)"/>
          <path class="cls-1" d="M227.65,44a9.67,9.67,0,0,1-.52,3.27,7.15,7.15,0,0,1-1.48,2.52,6.64,6.64,0,0,1-2.3,1.63,7.56,7.56,0,0,1-3,.58,7.48,7.48,0,0,1-3-.58,6.7,6.7,0,0,1-2.29-1.63,7.48,7.48,0,0,1-1.49-2.52,10.32,10.32,0,0,1,0-6.53,7.45,7.45,0,0,1,1.51-2.51,6.62,6.62,0,0,1,2.3-1.6,7.4,7.4,0,0,1,2.93-.57,7.48,7.48,0,0,1,2.94.57,6.44,6.44,0,0,1,2.3,1.6,7.4,7.4,0,0,1,1.49,2.51A9.37,9.37,0,0,1,227.65,44Zm-3.59,0a6,6,0,0,0-1-3.58,3.44,3.44,0,0,0-5.42,0,5.89,5.89,0,0,0-1,3.58,6,6,0,0,0,1,3.62,3.43,3.43,0,0,0,5.42,0A6.07,6.07,0,0,0,224.06,44Z" transform="translate(-33.79 -29.07)"/>
          <path class="cls-1" d="M239.9,39.56a11.11,11.11,0,0,0-1.2-.31,9.25,9.25,0,0,0-1.78-.16,6.73,6.73,0,0,0-1.23.12,7.19,7.19,0,0,0-.91.2V51.55h-3.51V37.12a20.77,20.77,0,0,1,2.54-.71,15.85,15.85,0,0,1,3.37-.33c.23,0,.5,0,.81,0s.62.07.93.12l.9.17c.29.07.52.13.69.19Z" transform="translate(-33.79 -29.07)"/>
          <path class="cls-1" d="M242.11,44.05a9.46,9.46,0,0,1,.59-3.51,7.33,7.33,0,0,1,1.58-2.5,6.46,6.46,0,0,1,2.26-1.51,7,7,0,0,1,2.61-.51A6.26,6.26,0,0,1,254,38q1.75,1.95,1.75,5.8c0,.19,0,.41,0,.65s0,.46-.05.65h-10A4,4,0,0,0,247,47.89a4.9,4.9,0,0,0,3.31,1,10.67,10.67,0,0,0,2.34-.23,9.47,9.47,0,0,0,1.66-.49l.46,2.87a4.41,4.41,0,0,1-.79.3,9.34,9.34,0,0,1-1.16.29c-.44.09-.9.16-1.41.22a12.83,12.83,0,0,1-1.53.09,9.25,9.25,0,0,1-3.48-.6A6.39,6.39,0,0,1,244,49.68a6.67,6.67,0,0,1-1.42-2.49A10.14,10.14,0,0,1,242.11,44.05Zm10.16-1.57a4.41,4.41,0,0,0-.2-1.37,3.2,3.2,0,0,0-.59-1.13,2.87,2.87,0,0,0-1-.76,3.49,3.49,0,0,0-2.76,0,3.28,3.28,0,0,0-1,.8,3.73,3.73,0,0,0-.66,1.13,5.86,5.86,0,0,0-.31,1.3Z" transform="translate(-33.79 -29.07)"/>
          <path class="cls-1" d="M259.49,36.89a23,23,0,0,1,2.63-.55,23.32,23.32,0,0,1,3.6-.26,8.24,8.24,0,0,1,3.1.51,4.81,4.81,0,0,1,2,1.42,5.41,5.41,0,0,1,1,2.2,11.89,11.89,0,0,1,.31,2.82v8.52h-3.51v-8a11.16,11.16,0,0,0-.16-2.07,3.61,3.61,0,0,0-.52-1.39,2,2,0,0,0-1-.78,4.28,4.28,0,0,0-1.52-.25,11.17,11.17,0,0,0-1.39.09l-1.08.14V51.55h-3.5Z" transform="translate(-33.79 -29.07)"/>
        </g>
      </g>
    </g>
  </g>
</svg>
